<svg id="Layer_1" data-name="Layer 1" xmlns="http://www.w3.org/2000/svg" viewBox="0 0 204.28 263.4"><defs><style>.cls-1,.cls-2{stroke:#000;stroke-miterlimit:10;}.cls-2,.cls-3{fill:#ff1c00;}.cls-4{fill:none;}</style></defs><title>AbuImranLogo (1)</title><path class="cls-1" d="M512.54,577.41a9.18,9.18,0,0,1-.64-1.3c-2.51-9.06-1.62-17.45,5-24.63q3.42-3.71,7.13-7.15c3.2-3,6.05-6.22,7.44-10.39a37,37,0,0,0,1.12-7.32c0-.35-.47-.77-.72-1.15-.29.27-.73.49-.86.83-2.48,6.55-7.54,11.08-12.35,15.78-4.34,4.24-8.55,8.56-11.76,13.76-5.45,8.83-7.2,18.5-6.69,28.7a15.69,15.69,0,0,1,0,1.68,3.62,3.62,0,0,1-.32.89,11.68,11.68,0,0,1-.92-1.35c-5.37-11.69-5.66-23.34.28-35,4-7.79,10.27-13.55,16.66-19.28,4.54-4.07,9.16-8.14,11.95-13.77a29.91,29.91,0,0,0,3.45-13.66,10.07,10.07,0,0,1,.12-1.14c1.86,1.4,4.47,8.6,5.37,17.74.61,6.18-.06,12.49-.17,19a19.06,19.06,0,0,0,1.33-1.94c3.16-6.15,3.84-12.73,3.31-19.5a46.17,46.17,0,0,0-15.94-32c-7-6.18-15-9.61-24.58-7.89a59.81,59.81,0,0,0-7.48,2.33,6.58,6.58,0,0,1-1.77.47c1.74-2.85,4.64-4.16,7.43-5.42s5.88-2.07,8.84-3.07v-.53a9,9,0,0,0-2-.35c-12.58.54-21.61,6.44-26.87,17.95a7.07,7.07,0,0,0-.53,1.2c-.24.91-.4,1.84-.59,2.77a7.84,7.84,0,0,0,2.66-.08,16.85,16.85,0,0,0,4.57-2.38c4.58-3.76,9.36-6.9,15.6-6.74a23.42,23.42,0,0,1,18.1,8.77,8.53,8.53,0,0,1,.54,1c-1.32-.09-2.41-.19-3.51-.23a6.86,6.86,0,0,0-6.64,3.73,6,6,0,0,0,.78,7.29c.85.95.05,1.41-.46,2-2.22,2.67-4.62,5.24-6.6,8.09-2.2,3.19-2.6,7-3,10.73l.47.21a12.6,12.6,0,0,0,.94-1.62,32,32,0,0,1,10.88-14.23c3.39-2.44,7-4.64,8.8-9.1,1.46,2.05,1.42,4.06,1.38,6a19.64,19.64,0,0,1-7.1,14.9c-3.15,2.75-6.32,5.45-9.42,8.25a34.7,34.7,0,0,0-7.92,10.35,2.61,2.61,0,0,1-.91,1c1.09-6.33,1.64-12.6-.62-18.77a23.53,23.53,0,0,0-12-13.65l-.59.43a14.84,14.84,0,0,0,1.22,1.79c8.15,8.88,9.83,19.16,6.41,30.44-1.86,6.15-5.59,11.22-9.63,16.12a50.67,50.67,0,0,0-11.71,34.3c.1,4.78,1,9.54,1.48,14.3,0,.3,0,.6.06,1.28a10.33,10.33,0,0,1-1.26-1.07c-3.84-4.69-6.81-9.83-8-15.87-.46-2.39-.82-2.57-3.14-1.95-8.06,2.16-13.81,7.46-18.79,13.81a3.83,3.83,0,0,1-1.59,1.35c.2-.7.36-1.41.62-2.08,6-15,15.58-27.3,27.87-37.65,4.67-3.94,9.15-8.1,13.64-12.23A37.15,37.15,0,0,0,484,548.6l-.41-.5a9.45,9.45,0,0,0-1.28.39c-3.8,1.81-7.53,2.13-11.11-.53a11,11,0,0,1-4.51-11.86c.56-2.56,1.94-5,3-7.4,1.69-3.72,4.57-7,4.76-11.27a16,16,0,0,0-1.07-6.51c-1.22-3-4.12-3.8-7.1-4a34.48,34.48,0,0,0-13.68,1.51,17.45,17.45,0,0,1-1.93.44l-.55-.42a38.86,38.86,0,0,1,2.44-5.22,22.25,22.25,0,0,1,10.13-8.85,9,9,0,0,0,1.72-1.28,11,11,0,0,0-1.49-1.49c-4.62-3.23-6.29-8.9-4-14.68a55.91,55.91,0,0,1,3.84-7.25c2.13-3.71,4.56-10.71,4.45-11.81s-2.76-2.82.51-1.94,1.58,9.58,4.19,10.53-.88.72.56.13,1.33-1.4,1.68-2.23c1.1-2.57,2-5.23,3.06-7.83a28.94,28.94,0,0,1,11.78-14.35c.36-.22.89-1.3,1.6-.72s-.39,1.43-.55,2c-1.34,4.31-2,8.65-.44,13,.22.64.62,1.63,1.23,1.74s1.29-.93,1.66-1.56c7-11.91,17.71-18.24,31-20.61.29-.05,1.18-.19,1.31.1s-.94,1.39-1.42,1.87c-4.2,4.2-6.51,9.39-7.82,15.08-.16.72-.19,2,.17,2.31s1.54-.34,2.1-.77c5-3.88,10.73-5.36,16.85-6,5.25-.58,10.65-.68,15.31-3.68,1.78-1.14,3.46-2.42,5.14-3.69.77-.59,1.67-2.61,2.62-2.4s.43,14.57-2,21.34A28.25,28.25,0,0,1,542.69,476c-6.39,3.55-13.42,4.32-20.66,3.95l-.23.72a13.06,13.06,0,0,0,1.78,1.48,65,65,0,0,1,15.78,12.77,76.87,76.87,0,0,1,13.3,20.88c3.46,7.65,5.67,15.69,7.74,23.81,2.5,9.84,4.79,19.79,9.51,28.91a59.16,59.16,0,0,0,12.42,16.29c.42.38.83.76,1.23,1.16.12.12.21.29.17.72-1.65-.77-3.36-1.45-5-2.33-14.16-7.8-22.61-19.65-25-35.68-.91-6-1.29-12.17-2.33-18.19-.63-3.65-2.08-7.15-3.18-10.72-.06-.2-.33-.33-.82-.78-.06.82-.14,1.32-.13,1.82.2,6.86.54,13.71.58,20.58.05,8,.73,15.8,4.11,23.21a49.28,49.28,0,0,0,8,11.65,5.84,5.84,0,0,1,1,1.54c-7.1-1.13-12.69-4.87-17.11-10.29s-6.33-11.9-6.62-19.07c-.76.32-1.21.37-1.39.61-3.16,4.33-7.26,7.68-11.37,11.05-5.37,4.39-9.65,9.58-11.41,16.49a1.92,1.92,0,0,1-.22.51C512.9,577.19,512.77,577.24,512.54,577.41Zm-29.86-73.94c-4-4-8.92-4.9-14.29-4.24-6.14.75-13.11,4.08-13.71,7A44,44,0,0,1,482.68,503.47Zm16.42-15.21c-2.45.17-3,.68-2.3,2.17.95,1.93.71,3.54-.7,4.71a3.76,3.76,0,0,1-4.83-.18c-.3-.22-.53-.68-.84-.71a16.78,16.78,0,0,0-2.35,0,5.48,5.48,0,0,0,.32,2.08,6.26,6.26,0,0,0,1.94,1.74,7,7,0,0,0,7.13.49,5.71,5.71,0,0,0,3.49-5.34c0-1.21.23-2.08,1.66-2.19.34,0,.64-.44,1-.68-.25-.32-.44-.81-.77-.93C501.6,489,500.34,488.65,499.1,488.26Z" transform="translate(-416.06 -435.41)"/><path class="cls-1" d="M441.33,681.43a16.42,16.42,0,0,1,2.45.33q21.63,6.48,39.63-7.13a66.18,66.18,0,0,0,12.79-13.57c2.79-3.75,5.5-7.6,8.61-11.06A31.79,31.79,0,0,1,522,639.65a2.31,2.31,0,0,0,2.07-2A63.7,63.7,0,0,1,526,631c1.42-4,4.64-6.56,7.73-9.2a12,12,0,0,0,1.24-1.49,19,19,0,0,0-1.56-1.15,56.91,56.91,0,0,1-6.31-3.91,4.36,4.36,0,0,1-1.36-3.44c1.22-7.09,3.87-13.59,9.29-18.55a14.82,14.82,0,0,1,9.76-3.79c2.37-.07,4.75,0,7.12-.05a12.44,12.44,0,0,0,8.15-2.77c.59-.49,1.25-.9,2.06-1.47a15.67,15.67,0,0,1-14.48,14.24c-2.56.17-5.15,0-7.66.35a18.18,18.18,0,0,0-6.27,2.07c-2.2,1.29-2,2.69,0,4.23,4.82,3.62,10.32,4.73,16.24,4.49,3.75-.16,7-1.8,10.27-3.28s6.31-3,9.46-4.49c.48-.23,1-.38,1.86-.7a10.35,10.35,0,0,1-.21,1.88c-.89,2.6-1.72,5.23-2.81,7.74a5,5,0,0,1-2.25,2.24c-8.25,4.14-16.58,8.12-24.82,12.27a88.39,88.39,0,0,0-7.7,4.6c-2.05,1.32-2.12,2.15-.15,3.66a78,78,0,0,0,6.5,4.4c1.44.89,2.34,2.06,1.9,3.69-.88,3.29-1.94,6.54-3.07,9.76-.1.31-1.34.6-1.74.37-7.76-4.58-15.41-3-22.91.49-7.16,3.36-11.86,9.35-16.13,15.75a90.6,90.6,0,0,1-12.05,15.23c-7.75,7.5-16.66,9.73-26.82,6-5.37-2-10.62-4.31-15.91-6.53a14.83,14.83,0,0,1-2.27-1.46Z" transform="translate(-416.06 -435.41)"/><path class="cls-1" d="M587.07,607.07c.25.43.48.87.75,1.29,2.88,4.54,5.53,9.17,6.55,14.57,1.37,7.28-1.47,20.08-10,24.81-2.92,1.63-4,3.7-4.53,6.83-1.29,7.74-5,14.43-9.9,20.48a77.42,77.42,0,0,1-15.7,14.6c-4.57,3.18-9.13,5.93-15.13,6.17-7.95.32-15.87,1.6-23.8,2.45a18.73,18.73,0,0,1-2.12,0l-.11-.53a16.66,16.66,0,0,1,2.22-1.06,140.2,140.2,0,0,0,35.51-16.5c8.61-5.7,16.5-12.32,22.68-20.71a11.86,11.86,0,0,0,1.7-4.84c.33-1.87-.48-2.29-2.38-2.12a57.85,57.85,0,0,1-9.65.39c-4.82-.41-7.43-3.71-6.86-8.47a44.24,44.24,0,0,1,4.84-16c2.86-5.3,8.71-6.39,12.36-1.69a64.66,64.66,0,0,1,4.77,7.73,15.58,15.58,0,0,1,1.06,3c.44,1.41,1.22,2,2.64,1.17,1.91-1.16,3.88-2.23,5.7-3.53,2.2-1.57,2.54-2.4,1.47-5a42,42,0,0,0-4.15-7.91,8.14,8.14,0,0,1-1-7.78c.76-2.35,1.48-4.71,2.22-7.07Zm-19.69,34.78a11.18,11.18,0,0,0,2.72-.34,1.83,1.83,0,0,0,.94-1.41c-.38-2-3.66-4.45-5.74-4.39a3.11,3.11,0,0,0-3.16,2.65c-.37,1.63.81,2.39,2.11,2.81A27.74,27.74,0,0,0,567.38,641.85Z" transform="translate(-416.06 -435.41)"/><path class="cls-1" d="M466.39,611.72c1.5,2.59,2.87,4.65,3.94,6.86A80.24,80.24,0,0,1,474.9,629c3.87,12.18.84,22.81-7.72,32.09a40.7,40.7,0,0,1-18.68,11.6c-5.43,1.59-11.1,2.18-16.63.51-7.71-2.32-12.79-7.33-14.29-15.46-2-11.1.68-21.09,7.68-29.8,4.19-5.23,10.17-8.12,16.17-10.85q4.5-2.05,8.89-4.34c.64-.33,1.05-1.11,1.57-1.68a7.45,7.45,0,0,0-2-1c-1.59-.21-3.2-.2-4.81-.27-.54,0-1.07,0-1.62,0,.21-3,1.73-4.84,4.3-5a41,41,0,0,1,7.08.38c1.66.21,2.12,1.32,1.43,2.89a15.87,15.87,0,0,1-8.26,8.24c-5.09,2.35-10.5,4.34-15,7.59-7.14,5.2-11.58,12.49-11.25,21.7.35,10,7.84,15.82,16.18,16.31,12.94.77,23.47-4.61,32.11-14,1.74-1.9,1.65-4.16.94-6.35a56,56,0,0,0-2.86-6.9c-1.41-2.92-3-5.77-4.52-8.61a5.42,5.42,0,0,1-.61-4.47c.83-2.68,1.58-5.38,2.4-8.07A14,14,0,0,1,466.39,611.72Z" transform="translate(-416.06 -435.41)"/><path class="cls-1" d="M485.69,658.12q.74-3.17,1.49-6.31c1.94-8.17,1.62-16.4.12-24.54-2.18-11.82-4.75-23.58-7.13-35.37-1.29-6.4-2.11-12.83-.54-19.3,1.13-4.69,3.61-8.72,6.37-12.6a5.79,5.79,0,0,1,.93-.69,23.68,23.68,0,0,0-.68,4.33c.21,5.35.1,10.76,1,16,1.48,9,3.75,17.79,5.42,26.73,1.61,8.64,3.39,17.26,3,26.15a44.59,44.59,0,0,1-7.8,23.84,24,24,0,0,1-1.75,2Z" transform="translate(-416.06 -435.41)"/><path class="cls-1" d="M605.47,664.48c.51-2,1-3.81,1.41-5.59a60.4,60.4,0,0,0,.51-25.46c-2.06-11.47-4.65-22.84-6.79-34.3a113.84,113.84,0,0,1-1.76-14.83c-.27-5.19,2.53-11.6,6.3-15.71a6.77,6.77,0,0,1,.26,1.45c-.44,6.76,1.18,13.27,2.47,19.8,2.22,11.31,4.8,22.56,6.91,33.89,1.67,9,1.77,18-1.18,26.83A41.55,41.55,0,0,1,607.31,663a11.76,11.76,0,0,1-1,1.11A3.56,3.56,0,0,1,605.47,664.48Z" transform="translate(-416.06 -435.41)"/><path class="cls-2" d="M468.57,552a13.17,13.17,0,0,1-10.63-6.35c-4.3-6.87-2.25-15.47,2.25-20.42,3-3.31,5.84-6.78,8.65-10.26.84-1,1.33-2.34,2.33-3.49a15.74,15.74,0,0,1,.1,2.27,27.08,27.08,0,0,1-3.91,11,65.28,65.28,0,0,0-4.57,9.77c-2.14,5.78.66,13.65,5.39,16.43l.81.46Z" transform="translate(-416.06 -435.41)"/><path class="cls-1" d="M445,572.46c-.06,0-.13,0-.18,0-1.18-.4-2.47-1.31-3.49-1.07s-1.85,1.58-2.67,2.51c-5.27,6-12,9.62-19.22,12.63a10.29,10.29,0,0,1-1.62.46,1,1,0,0,1-.93-.26c.84-.62,1.64-1.32,2.54-1.86a101.74,101.74,0,0,0,16.28-11.6c.27-.25.58-.48.85-.73,2.84-2.62,2.84-2.62-.16-5a4.79,4.79,0,0,1-1.14-6.41,17.74,17.74,0,0,1,4.24-5.11c2.59-2.07,5.16-.77,5.27,2.55.06,1.9-.46,3.81-.57,5.73a3.5,3.5,0,0,0,.52,2.32C446.69,568.72,446.82,569.94,445,572.46Zm-2.7-9.23c0-2.54-.87-3.71-2.31-3.63s-2.69,1-2.23,2.1,2.07,2,3.28,2.86C441.17,564.63,442.11,563.46,442.33,563.23Z" transform="translate(-416.06 -435.41)"/><path d="M497.9,598.28c5.28-2.39,10.64-4.6,15.81-7.2,4.38-2.2,8.84-4.43,12.23-8.15,1-1.09,1.74-2.4,2.68-3.55,1.85-2.26,3.63-4.59,5.66-6.68,1.44-1.49,3.33-1.13,4.36.77a10,10,0,0,1,.53,9,1.89,1.89,0,0,1-2.59,1.18c-1.75-.64-3.51-1.27-5.21-2-1.14-.5-2-.54-2.7.64-4.8,8-12.29,12.15-20.93,14.58-2.69.76-5.48,1.15-8.23,1.67a9.19,9.19,0,0,1-1.66,0ZM534,575.85l-1.07,1.28c1.17.71,2.33,1.45,3.54,2.08.12.06.81-.52.84-.84C537.38,577.35,535.58,575.81,534,575.85Z" transform="translate(-416.06 -435.41)"/><path class="cls-1" d="M591.9,571.05a4.65,4.65,0,0,1,1.62-4.42c1.24-1.11,1.29-1.93-.23-2.89-2.46-1.55-2.77-2.77-1.94-5.53a17.05,17.05,0,0,1,5.77-8.33,7.27,7.27,0,0,1,3.14-1.5,2.85,2.85,0,0,1,3.42,3.44,17.61,17.61,0,0,1-.54,2c-.33,1.17-.94,1.56-2,.77a3.91,3.91,0,0,0-4.86.15c-1.83,1.24-1.87,2.62.08,3.73a8.47,8.47,0,0,0,8.41.39l4.37-2.22c-.28,2.38-.46,4.28-2.18,5.39-4.5,2.89-9.09,5.67-13.64,8.48A10.41,10.41,0,0,1,591.9,571.05Z" transform="translate(-416.06 -435.41)"/><path class="cls-1" d="M453.74,637a13.92,13.92,0,0,1-.89,2.15c-1.17,1.91-2.35,3.81-3.69,5.6a1.93,1.93,0,0,1-1.85.2q-3.82-2.33-7.47-4.93a1.83,1.83,0,0,1-.5-1.69c1.42-2.47,3-4.89,4.57-7.25a1.66,1.66,0,0,1,1.59-.25c2.53,1.58,5,3.25,7.46,4.95C453.32,636.06,453.47,636.6,453.74,637Z" transform="translate(-416.06 -435.41)"/><path class="cls-1" d="M509,610.29c-.74,2.24-1.6,4.46-2.16,6.75a20.4,20.4,0,0,0-.4,4.82c0,1.54.74,3,2.3,3.22.92.12,2-.87,3-1.36a7.07,7.07,0,0,0,.62-.45,8.8,8.8,0,0,1-2.63,5.91,2.93,2.93,0,0,1-4.62-.82c-1.52-2.51-1.18-5.31-.53-7.84a87.76,87.76,0,0,1,3.64-9.77c.1-.26.38-.45.58-.67Z" transform="translate(-416.06 -435.41)"/><path class="cls-3" d="M482.68,503.47a44,44,0,0,0-28,2.79c.6-2.95,7.57-6.28,13.71-7C473.76,498.57,478.65,499.44,482.68,503.47Z" transform="translate(-416.06 -435.41)"/><path class="cls-2" d="M499.1,488.26c1.24.39,2.5.72,3.71,1.18.33.12.52.61.77.93-.32.24-.62.65-1,.68-1.43.11-1.65,1-1.66,2.19a5.71,5.71,0,0,1-3.49,5.34,7,7,0,0,1-7.13-.49,6.26,6.26,0,0,1-1.94-1.74,5.48,5.48,0,0,1-.32-2.08,16.78,16.78,0,0,1,2.35,0c.31,0,.54.49.84.71,1.64,1.24,4.83.18,4.83.18s1.65-2.78.7-4.71C496.07,488.94,496.65,488.43,499.1,488.26Z" transform="translate(-416.06 -435.41)"/><path class="cls-1" d="M567.38,641.85a27.74,27.74,0,0,1-3.13-.68c-1.3-.42-2.48-1.18-2.11-2.81a3.11,3.11,0,0,1,3.16-2.65c2.08-.06,5.36,2.36,5.74,4.39a1.83,1.83,0,0,1-.94,1.41A11.18,11.18,0,0,1,567.38,641.85Z" transform="translate(-416.06 -435.41)"/><path class="cls-1" d="M596.37,654.64a17.11,17.11,0,0,1-.91,2.28,13.57,13.57,0,0,1-2.38-4.88c-.33-1.85.65-3.45,1.62-3.57S596.38,650.32,596.37,654.64Z" transform="translate(-416.06 -435.41)"/><path class="cls-4" d="M617,630.62c1.59,0,3.39,1.5,3.3,2.53,0,.31-.72.89-.84.83-1.21-.63-2.37-1.37-3.54-2.08Z" transform="translate(-416.06 -435.41)"/></svg>